<mxfile host="app.diagrams.net" modified="2023-07-01T18:11:30.518Z" agent="Mozilla/5.0 (Windows NT 10.0; Win64; x64) AppleWebKit/537.36 (KHTML, like Gecko) Chrome/114.0.0.0 Safari/537.36 Edg/114.0.1823.67" etag="HSl08NoJ_Q-RSyO6Qr4t" version="21.5.2" type="device">
  <diagram name="PÃ¡gina-1" id="a_qFYttMn9DbcRjkyU0H">
    <mxGraphModel dx="2074" dy="1166" grid="1" gridSize="10" guides="1" tooltips="1" connect="1" arrows="1" fold="1" page="1" pageScale="1" pageWidth="1169" pageHeight="827" math="0" shadow="0">
      <root>
        <mxCell id="0" />
        <mxCell id="1" parent="0" />
        <mxCell id="NShE5ZIGYnbZBfNVVEFF-16" value="" style="edgeStyle=orthogonalEdgeStyle;rounded=0;orthogonalLoop=1;jettySize=auto;html=1;" edge="1" parent="1" source="NShE5ZIGYnbZBfNVVEFF-1" target="NShE5ZIGYnbZBfNVVEFF-4">
          <mxGeometry relative="1" as="geometry" />
        </mxCell>
        <mxCell id="NShE5ZIGYnbZBfNVVEFF-1" value="Amazon S3" style="outlineConnect=0;fontColor=#232F3E;gradientColor=none;strokeColor=#ffffff;fillColor=#232F3E;dashed=0;verticalLabelPosition=middle;verticalAlign=bottom;align=center;html=1;whiteSpace=wrap;fontSize=10;fontStyle=1;spacing=3;shape=mxgraph.aws4.productIcon;prIcon=mxgraph.aws4.s3;shadow=0;backgroundOutline=0;strokeOpacity=100;strokeWidth=1;" vertex="1" parent="1">
          <mxGeometry x="560" y="530" width="80" height="100" as="geometry" />
        </mxCell>
        <mxCell id="NShE5ZIGYnbZBfNVVEFF-4" value="Amazon Glacier" style="outlineConnect=0;fontColor=#232F3E;gradientColor=none;strokeColor=#ffffff;fillColor=#232F3E;dashed=0;verticalLabelPosition=middle;verticalAlign=bottom;align=center;html=1;whiteSpace=wrap;fontSize=10;fontStyle=1;spacing=3;shape=mxgraph.aws4.productIcon;prIcon=mxgraph.aws4.glacier;shadow=0;backgroundOutline=0;strokeOpacity=100;strokeWidth=1;" vertex="1" parent="1">
          <mxGeometry x="560" y="670" width="80" height="110" as="geometry" />
        </mxCell>
        <mxCell id="NShE5ZIGYnbZBfNVVEFF-14" value="" style="edgeStyle=orthogonalEdgeStyle;rounded=0;orthogonalLoop=1;jettySize=auto;html=1;" edge="1" parent="1" source="NShE5ZIGYnbZBfNVVEFF-5" target="NShE5ZIGYnbZBfNVVEFF-7">
          <mxGeometry relative="1" as="geometry">
            <Array as="points">
              <mxPoint x="620" y="430" />
            </Array>
          </mxGeometry>
        </mxCell>
        <mxCell id="NShE5ZIGYnbZBfNVVEFF-25" value="" style="edgeStyle=orthogonalEdgeStyle;rounded=0;orthogonalLoop=1;jettySize=auto;html=1;" edge="1" parent="1" source="NShE5ZIGYnbZBfNVVEFF-5" target="NShE5ZIGYnbZBfNVVEFF-21">
          <mxGeometry relative="1" as="geometry" />
        </mxCell>
        <mxCell id="NShE5ZIGYnbZBfNVVEFF-44" value="" style="edgeStyle=orthogonalEdgeStyle;rounded=0;orthogonalLoop=1;jettySize=auto;html=1;" edge="1" parent="1" source="NShE5ZIGYnbZBfNVVEFF-5" target="NShE5ZIGYnbZBfNVVEFF-1">
          <mxGeometry relative="1" as="geometry">
            <mxPoint x="600" y="420" as="targetPoint" />
          </mxGeometry>
        </mxCell>
        <mxCell id="NShE5ZIGYnbZBfNVVEFF-5" value="Amazon ECS" style="outlineConnect=0;fontColor=#232F3E;gradientColor=none;strokeColor=#ffffff;fillColor=#232F3E;dashed=0;verticalLabelPosition=middle;verticalAlign=bottom;align=center;html=1;whiteSpace=wrap;fontSize=10;fontStyle=1;spacing=3;shape=mxgraph.aws4.productIcon;prIcon=mxgraph.aws4.ecs;shadow=0;backgroundOutline=0;strokeOpacity=100;strokeWidth=1;" vertex="1" parent="1">
          <mxGeometry x="560" y="240" width="80" height="100" as="geometry" />
        </mxCell>
        <mxCell id="NShE5ZIGYnbZBfNVVEFF-27" value="" style="edgeStyle=orthogonalEdgeStyle;rounded=0;orthogonalLoop=1;jettySize=auto;html=1;" edge="1" parent="1" source="NShE5ZIGYnbZBfNVVEFF-6" target="NShE5ZIGYnbZBfNVVEFF-22">
          <mxGeometry relative="1" as="geometry" />
        </mxCell>
        <mxCell id="NShE5ZIGYnbZBfNVVEFF-6" value="AWS Lambda" style="outlineConnect=0;fontColor=#232F3E;gradientColor=none;strokeColor=#ffffff;fillColor=#232F3E;dashed=0;verticalLabelPosition=middle;verticalAlign=bottom;align=center;html=1;whiteSpace=wrap;fontSize=10;fontStyle=1;spacing=3;shape=mxgraph.aws4.productIcon;prIcon=mxgraph.aws4.lambda;shadow=0;backgroundOutline=0;strokeOpacity=100;strokeWidth=1;" vertex="1" parent="1">
          <mxGeometry x="350" y="240" width="80" height="100" as="geometry" />
        </mxCell>
        <mxCell id="NShE5ZIGYnbZBfNVVEFF-47" value="" style="edgeStyle=orthogonalEdgeStyle;rounded=0;orthogonalLoop=1;jettySize=auto;html=1;" edge="1" parent="1" source="NShE5ZIGYnbZBfNVVEFF-7" target="NShE5ZIGYnbZBfNVVEFF-42">
          <mxGeometry relative="1" as="geometry" />
        </mxCell>
        <mxCell id="NShE5ZIGYnbZBfNVVEFF-7" value="Amazon Kinesis" style="outlineConnect=0;fontColor=#232F3E;gradientColor=none;strokeColor=#ffffff;fillColor=#232F3E;dashed=0;verticalLabelPosition=middle;verticalAlign=bottom;align=center;html=1;whiteSpace=wrap;fontSize=10;fontStyle=1;spacing=3;shape=mxgraph.aws4.productIcon;prIcon=mxgraph.aws4.kinesis;shadow=0;backgroundOutline=0;strokeOpacity=100;strokeWidth=1;" vertex="1" parent="1">
          <mxGeometry x="700" y="380" width="80" height="110" as="geometry" />
        </mxCell>
        <mxCell id="NShE5ZIGYnbZBfNVVEFF-13" value="" style="edgeStyle=orthogonalEdgeStyle;rounded=0;orthogonalLoop=1;jettySize=auto;html=1;" edge="1" parent="1" source="NShE5ZIGYnbZBfNVVEFF-8" target="NShE5ZIGYnbZBfNVVEFF-5">
          <mxGeometry relative="1" as="geometry" />
        </mxCell>
        <mxCell id="NShE5ZIGYnbZBfNVVEFF-8" value="Amazon API Gateway" style="sketch=0;outlineConnect=0;fontColor=#232F3E;gradientColor=none;strokeColor=#ffffff;fillColor=#232F3E;dashed=0;verticalLabelPosition=middle;verticalAlign=bottom;align=center;html=1;whiteSpace=wrap;fontSize=10;fontStyle=1;spacing=3;shape=mxgraph.aws4.productIcon;prIcon=mxgraph.aws4.api_gateway;" vertex="1" parent="1">
          <mxGeometry x="560" y="90" width="80" height="110" as="geometry" />
        </mxCell>
        <mxCell id="NShE5ZIGYnbZBfNVVEFF-24" value="" style="edgeStyle=orthogonalEdgeStyle;rounded=0;orthogonalLoop=1;jettySize=auto;html=1;endArrow=none;endFill=0;startArrow=classic;startFill=1;" edge="1" parent="1" source="NShE5ZIGYnbZBfNVVEFF-10" target="NShE5ZIGYnbZBfNVVEFF-5">
          <mxGeometry relative="1" as="geometry">
            <mxPoint x="490" y="145" as="targetPoint" />
            <Array as="points">
              <mxPoint x="480" y="145" />
              <mxPoint x="480" y="260" />
            </Array>
          </mxGeometry>
        </mxCell>
        <mxCell id="NShE5ZIGYnbZBfNVVEFF-26" value="" style="edgeStyle=orthogonalEdgeStyle;rounded=0;orthogonalLoop=1;jettySize=auto;html=1;" edge="1" parent="1" source="NShE5ZIGYnbZBfNVVEFF-10" target="NShE5ZIGYnbZBfNVVEFF-6">
          <mxGeometry relative="1" as="geometry" />
        </mxCell>
        <mxCell id="NShE5ZIGYnbZBfNVVEFF-10" value="Amazon RDS" style="sketch=0;outlineConnect=0;fontColor=#232F3E;gradientColor=none;strokeColor=#ffffff;fillColor=#232F3E;dashed=0;verticalLabelPosition=middle;verticalAlign=bottom;align=center;html=1;whiteSpace=wrap;fontSize=10;fontStyle=1;spacing=3;shape=mxgraph.aws4.productIcon;prIcon=mxgraph.aws4.rds;" vertex="1" parent="1">
          <mxGeometry x="350" y="95" width="80" height="100" as="geometry" />
        </mxCell>
        <mxCell id="NShE5ZIGYnbZBfNVVEFF-12" value="" style="edgeStyle=orthogonalEdgeStyle;rounded=0;orthogonalLoop=1;jettySize=auto;html=1;fontColor=#CCCCCC;strokeColor=#808080;endArrow=none;endFill=0;" edge="1" parent="1" source="NShE5ZIGYnbZBfNVVEFF-11" target="NShE5ZIGYnbZBfNVVEFF-8">
          <mxGeometry relative="1" as="geometry" />
        </mxCell>
        <mxCell id="NShE5ZIGYnbZBfNVVEFF-11" value="Entrada de dados JSON" style="rounded=0;whiteSpace=wrap;html=1;dashed=1;strokeWidth=1;strokeColor=#808080;fontSize=11;fontColor=#B3B3B3;" vertex="1" parent="1">
          <mxGeometry x="700" y="115" width="120" height="60" as="geometry" />
        </mxCell>
        <mxCell id="NShE5ZIGYnbZBfNVVEFF-18" value="" style="edgeStyle=orthogonalEdgeStyle;rounded=0;orthogonalLoop=1;jettySize=auto;html=1;endArrow=none;endFill=0;strokeColor=#B3B3B3;" edge="1" parent="1" source="NShE5ZIGYnbZBfNVVEFF-17">
          <mxGeometry relative="1" as="geometry">
            <mxPoint x="600" y="650" as="targetPoint" />
          </mxGeometry>
        </mxCell>
        <mxCell id="NShE5ZIGYnbZBfNVVEFF-17" value="Automaticamente arquiva os comprovantes mais antigos" style="rounded=0;whiteSpace=wrap;html=1;dashed=1;strokeWidth=1;strokeColor=#808080;fontSize=11;fontColor=#B3B3B3;" vertex="1" parent="1">
          <mxGeometry x="710" y="620" width="120" height="60" as="geometry" />
        </mxCell>
        <mxCell id="NShE5ZIGYnbZBfNVVEFF-21" value="Amazon Simple Email Service" style="sketch=0;outlineConnect=0;fontColor=#232F3E;gradientColor=none;strokeColor=#ffffff;fillColor=#232F3E;dashed=0;verticalLabelPosition=middle;verticalAlign=bottom;align=center;html=1;whiteSpace=wrap;fontSize=10;fontStyle=1;spacing=3;shape=mxgraph.aws4.productIcon;prIcon=mxgraph.aws4.simple_email_service;" vertex="1" parent="1">
          <mxGeometry x="700" y="235" width="80" height="110" as="geometry" />
        </mxCell>
        <mxCell id="NShE5ZIGYnbZBfNVVEFF-29" value="" style="edgeStyle=orthogonalEdgeStyle;rounded=0;orthogonalLoop=1;jettySize=auto;html=1;" edge="1" parent="1" source="NShE5ZIGYnbZBfNVVEFF-22" target="NShE5ZIGYnbZBfNVVEFF-5">
          <mxGeometry relative="1" as="geometry">
            <mxPoint x="490" y="430" as="targetPoint" />
            <Array as="points">
              <mxPoint x="480" y="430" />
              <mxPoint x="480" y="290" />
            </Array>
          </mxGeometry>
        </mxCell>
        <mxCell id="NShE5ZIGYnbZBfNVVEFF-22" value="Amazon SQS" style="sketch=0;outlineConnect=0;fontColor=#232F3E;gradientColor=none;strokeColor=#ffffff;fillColor=#232F3E;dashed=0;verticalLabelPosition=middle;verticalAlign=bottom;align=center;html=1;whiteSpace=wrap;fontSize=10;fontStyle=1;spacing=3;shape=mxgraph.aws4.productIcon;prIcon=mxgraph.aws4.sqs;" vertex="1" parent="1">
          <mxGeometry x="350" y="380" width="80" height="100" as="geometry" />
        </mxCell>
        <mxCell id="NShE5ZIGYnbZBfNVVEFF-30" value="" style="edgeStyle=orthogonalEdgeStyle;rounded=0;orthogonalLoop=1;jettySize=auto;html=1;fontColor=#CCCCCC;strokeColor=#808080;endArrow=none;endFill=0;" edge="1" parent="1" source="NShE5ZIGYnbZBfNVVEFF-31">
          <mxGeometry relative="1" as="geometry">
            <mxPoint x="780" y="280" as="targetPoint" />
          </mxGeometry>
        </mxCell>
        <mxCell id="NShE5ZIGYnbZBfNVVEFF-31" value="Envio de e-mail em escala" style="rounded=0;whiteSpace=wrap;html=1;dashed=1;strokeWidth=1;strokeColor=#808080;fontSize=11;fontColor=#B3B3B3;" vertex="1" parent="1">
          <mxGeometry x="840" y="250" width="120" height="60" as="geometry" />
        </mxCell>
        <mxCell id="NShE5ZIGYnbZBfNVVEFF-32" value="" style="edgeStyle=orthogonalEdgeStyle;rounded=0;orthogonalLoop=1;jettySize=auto;html=1;fontColor=#CCCCCC;strokeColor=#808080;endArrow=none;endFill=0;" edge="1" parent="1" source="NShE5ZIGYnbZBfNVVEFF-33" target="NShE5ZIGYnbZBfNVVEFF-22">
          <mxGeometry relative="1" as="geometry">
            <mxPoint x="50" y="435" as="targetPoint" />
          </mxGeometry>
        </mxCell>
        <mxCell id="NShE5ZIGYnbZBfNVVEFF-33" value="Enfileiramento da geraÃ§Ã£o de boletos" style="rounded=0;whiteSpace=wrap;html=1;dashed=1;strokeWidth=1;strokeColor=#808080;fontSize=11;fontColor=#B3B3B3;" vertex="1" parent="1">
          <mxGeometry x="130" y="400" width="120" height="60" as="geometry" />
        </mxCell>
        <mxCell id="NShE5ZIGYnbZBfNVVEFF-34" value="" style="edgeStyle=orthogonalEdgeStyle;rounded=0;orthogonalLoop=1;jettySize=auto;html=1;fontColor=#CCCCCC;strokeColor=#808080;endArrow=none;endFill=0;" edge="1" parent="1" source="NShE5ZIGYnbZBfNVVEFF-35">
          <mxGeometry relative="1" as="geometry">
            <mxPoint x="350" y="280" as="targetPoint" />
          </mxGeometry>
        </mxCell>
        <mxCell id="NShE5ZIGYnbZBfNVVEFF-35" value="Busca dos dados e envio para a fila" style="rounded=0;whiteSpace=wrap;html=1;dashed=1;strokeWidth=1;strokeColor=#808080;fontSize=11;fontColor=#B3B3B3;" vertex="1" parent="1">
          <mxGeometry x="130" y="250" width="120" height="60" as="geometry" />
        </mxCell>
        <mxCell id="NShE5ZIGYnbZBfNVVEFF-36" value="" style="edgeStyle=orthogonalEdgeStyle;rounded=0;orthogonalLoop=1;jettySize=auto;html=1;fontColor=#CCCCCC;strokeColor=#808080;endArrow=none;endFill=0;" edge="1" parent="1" source="NShE5ZIGYnbZBfNVVEFF-37">
          <mxGeometry relative="1" as="geometry">
            <mxPoint x="350" y="140" as="targetPoint" />
          </mxGeometry>
        </mxCell>
        <mxCell id="NShE5ZIGYnbZBfNVVEFF-37" value="Banco de dados" style="rounded=0;whiteSpace=wrap;html=1;dashed=1;strokeWidth=1;strokeColor=#808080;fontSize=11;fontColor=#B3B3B3;" vertex="1" parent="1">
          <mxGeometry x="130" y="110" width="120" height="60" as="geometry" />
        </mxCell>
        <mxCell id="NShE5ZIGYnbZBfNVVEFF-38" value="" style="edgeStyle=orthogonalEdgeStyle;rounded=0;orthogonalLoop=1;jettySize=auto;html=1;fontColor=#CCCCCC;strokeColor=#808080;endArrow=none;endFill=0;" edge="1" parent="1" source="NShE5ZIGYnbZBfNVVEFF-39">
          <mxGeometry relative="1" as="geometry">
            <mxPoint x="560" y="580" as="targetPoint" />
          </mxGeometry>
        </mxCell>
        <mxCell id="NShE5ZIGYnbZBfNVVEFF-39" value="Armazenamento de documentos &quot;quentes&quot; para anÃ¡lises ou contestaÃ§Ãµes necessÃ¡rias" style="rounded=0;whiteSpace=wrap;html=1;dashed=1;strokeWidth=1;strokeColor=#808080;fontSize=11;fontColor=#B3B3B3;" vertex="1" parent="1">
          <mxGeometry x="320" y="540" width="160" height="80" as="geometry" />
        </mxCell>
        <mxCell id="NShE5ZIGYnbZBfNVVEFF-40" value="" style="edgeStyle=orthogonalEdgeStyle;rounded=0;orthogonalLoop=1;jettySize=auto;html=1;fontColor=#CCCCCC;strokeColor=#808080;endArrow=none;endFill=0;" edge="1" parent="1" source="NShE5ZIGYnbZBfNVVEFF-41">
          <mxGeometry relative="1" as="geometry">
            <mxPoint x="560" y="710" as="targetPoint" />
          </mxGeometry>
        </mxCell>
        <mxCell id="NShE5ZIGYnbZBfNVVEFF-41" value="Armazenamento de documentos frios" style="rounded=0;whiteSpace=wrap;html=1;dashed=1;strokeWidth=1;strokeColor=#808080;fontSize=11;fontColor=#B3B3B3;" vertex="1" parent="1">
          <mxGeometry x="340" y="680" width="120" height="60" as="geometry" />
        </mxCell>
        <mxCell id="NShE5ZIGYnbZBfNVVEFF-42" value="Amazon S3" style="outlineConnect=0;fontColor=#232F3E;gradientColor=none;strokeColor=#ffffff;fillColor=#232F3E;dashed=0;verticalLabelPosition=middle;verticalAlign=bottom;align=center;html=1;whiteSpace=wrap;fontSize=10;fontStyle=1;spacing=3;shape=mxgraph.aws4.productIcon;prIcon=mxgraph.aws4.s3;shadow=0;backgroundOutline=0;strokeOpacity=100;strokeWidth=1;" vertex="1" parent="1">
          <mxGeometry x="880" y="385" width="80" height="100" as="geometry" />
        </mxCell>
        <mxCell id="NShE5ZIGYnbZBfNVVEFF-45" value="" style="edgeStyle=orthogonalEdgeStyle;rounded=0;orthogonalLoop=1;jettySize=auto;html=1;fontColor=#CCCCCC;strokeColor=#808080;endArrow=none;endFill=0;" edge="1" parent="1" source="NShE5ZIGYnbZBfNVVEFF-46">
          <mxGeometry relative="1" as="geometry">
            <mxPoint x="960" y="435" as="targetPoint" />
          </mxGeometry>
        </mxCell>
        <mxCell id="NShE5ZIGYnbZBfNVVEFF-46" value="Armazenamento de logs de maneira temporÃ¡ria" style="rounded=0;whiteSpace=wrap;html=1;dashed=1;strokeWidth=1;strokeColor=#808080;fontSize=11;fontColor=#B3B3B3;" vertex="1" parent="1">
          <mxGeometry x="1020" y="405" width="120" height="60" as="geometry" />
        </mxCell>
        <mxCell id="NShE5ZIGYnbZBfNVVEFF-48" value="" style="edgeStyle=orthogonalEdgeStyle;rounded=0;orthogonalLoop=1;jettySize=auto;html=1;fontColor=#CCCCCC;strokeColor=#808080;endArrow=none;endFill=0;" edge="1" parent="1" source="NShE5ZIGYnbZBfNVVEFF-49" target="NShE5ZIGYnbZBfNVVEFF-7">
          <mxGeometry relative="1" as="geometry">
            <mxPoint x="730" y="550" as="targetPoint" />
          </mxGeometry>
        </mxCell>
        <mxCell id="NShE5ZIGYnbZBfNVVEFF-49" value="Stream de logs" style="rounded=0;whiteSpace=wrap;html=1;dashed=1;strokeWidth=1;strokeColor=#808080;fontSize=11;fontColor=#B3B3B3;" vertex="1" parent="1">
          <mxGeometry x="790" y="520" width="120" height="60" as="geometry" />
        </mxCell>
        <mxCell id="NShE5ZIGYnbZBfNVVEFF-50" value="" style="edgeStyle=orthogonalEdgeStyle;rounded=0;orthogonalLoop=1;jettySize=auto;html=1;fontColor=#CCCCCC;strokeColor=#808080;endArrow=none;endFill=0;" edge="1" parent="1" source="NShE5ZIGYnbZBfNVVEFF-51" target="NShE5ZIGYnbZBfNVVEFF-5">
          <mxGeometry relative="1" as="geometry">
            <mxPoint x="400" y="430" as="targetPoint" />
            <Array as="points">
              <mxPoint x="520" y="400" />
              <mxPoint x="580" y="400" />
            </Array>
          </mxGeometry>
        </mxCell>
        <mxCell id="NShE5ZIGYnbZBfNVVEFF-51" value="Processamento principal do serviÃ§o" style="rounded=0;whiteSpace=wrap;html=1;dashed=1;strokeWidth=1;strokeColor=#808080;fontSize=11;fontColor=#B3B3B3;" vertex="1" parent="1">
          <mxGeometry x="460" y="450" width="120" height="60" as="geometry" />
        </mxCell>
      </root>
    </mxGraphModel>
  </diagram>
</mxfile>
